<svg id="Group_3414" data-name="Group 3414" xmlns="http://www.w3.org/2000/svg" width="73.518" height="48.012" viewBox="0 0 73.518 48.012">
  <path id="Path_3955" data-name="Path 3955" d="M91.277,85.258c-14.189.91-24.763,5.63-32.189,12.246a.614.614,0,0,1-.762.085,19.25,19.25,0,0,0-13.72-1.227c-.425.125-.644-.209-.285-.448,13.007-8.642,32.346-12.033,46.934-10.939.228.016.274.265.022.282m3-11.324c-.82,0-1.372-.959-1.4-1.544a3.385,3.385,0,0,0-.96,1.583c-.449,1.406-.386,5.764-.395,7.9,0,.454-.085.662-.507.653-.882-.018-2.041-.048-2.481-.064-.382-.014-.562-.069-.625-.563a16.271,16.271,0,0,1-.035-2.492,7.619,7.619,0,0,1-5.215,3.412,4.221,4.221,0,0,1-4.2-2.149,3.851,3.851,0,0,1-2.923,2.539,2.806,2.806,0,0,1-3.1-1.925,4.587,4.587,0,0,1-3.149,2.669,2.522,2.522,0,0,1-2.734-1.648,4.182,4.182,0,0,1-2.8,2.683,2.975,2.975,0,0,1-3.332-1.448c-.633,1.388-1.259,2.555-2.9,3.1a2.464,2.464,0,0,1-2.8-.971,4.681,4.681,0,0,1-2.8,2.932,3.117,3.117,0,0,1-3.74-1.393c-.627,1.751-1.43,3.686-3.249,4.818-2.171,1.35-3.975.147-4.3-2.623-.652-5.5-.634-7.585-3.3-6.5.03,4.885.1,9.765.192,12.532a1.138,1.138,0,0,1-.622,1.12,25.111,25.111,0,0,0-4.214,3.1c-.365.338-.765.241-.756-.342a230.6,230.6,0,0,1,2.375-30.6,11.161,11.161,0,0,0-7.168,9.873c-.111,1.665.7,3.658,1.926,3.612,1.1-.041,1.7-1.079,1.873-1.149.241-.1.366.063.4.415.014,2.886-1.007,5.755-3.743,6.485-3.153.842-5.4-3.079-5.012-6.946.826-8.231,7.531-13.341,14.9-14.642,4.55-.8,8.6.692,8.648,5.529.045,4.475-1.9,6.958-5.08,8.6-.072.049-.038.113.041.106,2.738-.212,3.35,1.005,3.657,3.624.251,2.14.243,3.89,1.424,3.645.539-.112,1.1-1.161,1.487-2.034-.014-.069-.031-.136-.041-.209-.73-4.841,1.1-10.345,5-10.561,1.06-.058,1.286.279,1.81.176.486-.1,2.082-1.233,2.755-1.331a.4.4,0,0,1,.505.4c-.054,1.895-.287,6.467-.132,8.4.075.932.5,1.254,1.227,1.068.424-.108.886-.679,1.21-1.245a6.106,6.106,0,0,1-.2-1.162c-.426-5.375,1.714-8.644,4.315-8.858a2.87,2.87,0,0,1,2.163.5.105.105,0,0,0,.176-.069,56.266,56.266,0,0,0,.036-7.128c1.006-.469,3.738-1.308,3.714-.121-.071,3.533-.67,10.221-.343,14.369.069.88.6,1.244,1.134,1.133a2.279,2.279,0,0,0,1.2-1.08c-.435-4.056.726-14.817.445-16.766.819-.459,3.7-1.14,3.79.02.2,2.572-.988,12.321-.436,16.193.121.847.6,1.226,1.123,1.154.44-.06.786-.553,1-1.029a5.63,5.63,0,0,1-.136-.812c-.493-5.506,2.242-7.759,4.458-8.019a3.343,3.343,0,0,1,3.788,2.7c.385,3.289-2.512,5.116-4.442,5.579a1.846,1.846,0,0,0,1.96,1.748c1.434-.078,3.553-2.038,4.238-3.046a48.67,48.67,0,0,0,.236-5.1,3.01,3.01,0,0,0-.563-.917c-.088-.124-.153-.292.011-.4a9.285,9.285,0,0,1,3.01-1.1.658.658,0,0,1,.777.727c-.042.661-.051.83-.051,1.287.413-.663,1.522-2.456,3.12-2.413a1.582,1.582,0,0,1,1.545,1.6,2.021,2.021,0,0,1-1.768,2.42m-52.42-1.55c.028-3.687-2.818-4.846-4.341-4.363-.175.443-.227,6.376-.2,12.825,3.23-1.56,4.512-4.4,4.544-8.462m12.212,5.191c-.141-.706-.727-1.206-1.265-1.013-1.691.6-1.961,5.26-1.6,7.628.2,1.317.935,1.89,1.538,1.681a2.5,2.5,0,0,0,1.316-2.006,22.882,22.882,0,0,0,.014-6.289M66.13,74.887c-.147-.565-.6-1.051-1.146-.908-1.494.388-1.858,4.762-1.554,6.979.153,1.123.692,1.734,1.311,1.59a2.336,2.336,0,0,0,1.316-1.91,17.96,17.96,0,0,0,.073-5.751m15.445,3.046A5.184,5.184,0,0,0,83.5,73.5c-.042-1.11-.4-1.5-.849-1.391-.987.238-1.309,3.977-1.08,5.822" transform="translate(-22.534 -51.836)" fill="#243269"/>
  <path id="Path_3956" data-name="Path 3956" d="M75.872,50.234V49.4a1.091,1.091,0,0,1,.4-.84,1.431,1.431,0,0,1,.695-.319l1.143-.127a5.129,5.129,0,0,0-.438,1.921Z" transform="translate(-44.504 -45.823)" fill="#243269"/>
  <path id="Path_3957" data-name="Path 3957" d="M85.445,47.179,86,45.428a6.08,6.08,0,0,0-2.888.4c-1.421.6-2.642,2.465-2.642,5.162s1.306,4.025,2.857,4.025a4.165,4.165,0,0,0,2.581-.922l-.492-1.29a2.4,2.4,0,0,1-1.26.461c-.59,0-1.536-.386-1.536-2.735s.794-3.5,2.274-3.5a1.1,1.1,0,0,1,.553.153m-5.308-1.06a5.1,5.1,0,0,0-.44,2v4.624a3.111,3.111,0,0,1-3.284,3.06,2,2,0,0,1-2.267-2.165V46.787l1.795-.2v6.9a.785.785,0,0,0,.846.779A1.261,1.261,0,0,0,77.9,52.875V47.405a1.094,1.094,0,0,1,.4-.84,1.447,1.447,0,0,1,.695-.319ZM69.821,48.3l.611-1.935a6.72,6.72,0,0,0-3.191.442c-1.57.667-2.92,2.724-2.92,5.7s1.444,4.447,3.157,4.447a4.6,4.6,0,0,0,2.852-1.019l-.543-1.426a2.652,2.652,0,0,1-1.392.509c-.652,0-1.7-.426-1.7-3.022s.877-3.87,2.512-3.87a1.219,1.219,0,0,1,.611.17m1.287,1.177v6.772l1.794-.2V49.277Z" transform="translate(-39.746 -44.703)" fill="#ed353f"/>
  <path id="Path_3958" data-name="Path 3958" d="M104.141,45.913a.847.847,0,1,1,.847-.847.848.848,0,0,1-.847.847m0-1.532a.685.685,0,1,0,.686.685.686.686,0,0,0-.686-.685m-.306.221a1.612,1.612,0,0,1,.269-.021.471.471,0,0,1,.3.074.232.232,0,0,1,.084.188.246.246,0,0,1-.178.232v0a.232.232,0,0,1,.136.179,2.293,2.293,0,0,0,.076.259h-.182a1.175,1.175,0,0,1-.065-.219c-.029-.122-.074-.161-.175-.163h-.09v.382h-.176Zm.176.409h.106c.12,0,.193-.061.193-.153s-.074-.149-.189-.149a.609.609,0,0,0-.11.008Z" transform="translate(-55.8 -44.219)" fill="#ed353f"/>
</svg>
