<svg xmlns="http://www.w3.org/2000/svg" xmlns:xlink="http://www.w3.org/1999/xlink" width="99.533" height="65.001" viewBox="0 0 99.533 65.001">
  <defs>
    <clipPath id="clip-path">
      <rect id="Rectangle_1481" data-name="Rectangle 1481" width="99.533" height="65.001" fill="none"/>
    </clipPath>
  </defs>
  <g id="Group_2902" data-name="Group 2902" clip-path="url(#clip-path)">
    <path id="Path_4031" data-name="Path 4031" d="M93.068,71.087c-19.209,1.231-33.526,7.622-43.58,16.579a.831.831,0,0,1-1.031.115A26.064,26.064,0,0,0,29.883,86.12c-.576.169-.872-.283-.387-.605,17.61-11.7,43.791-16.291,63.543-14.81.308.023.37.359.029.382m4.058-15.331c-1.111,0-1.858-1.3-1.9-2.09a4.577,4.577,0,0,0-1.3,2.143c-.608,1.9-.523,7.8-.534,10.7,0,.615-.114.9-.686.885-1.194-.024-2.764-.064-3.359-.086-.516-.019-.761-.094-.846-.763a22.015,22.015,0,0,1-.048-3.373c-1.724,2.651-4.813,4.48-7.061,4.619a5.713,5.713,0,0,1-5.687-2.909c-.79,1.787-2.161,3.267-3.958,3.438a3.8,3.8,0,0,1-4.2-2.606,6.211,6.211,0,0,1-4.264,3.613,3.414,3.414,0,0,1-3.7-2.23,5.661,5.661,0,0,1-3.794,3.633,4.027,4.027,0,0,1-4.511-1.96c-.857,1.88-1.705,3.459-3.927,4.2a3.336,3.336,0,0,1-3.794-1.314c-.877,1.96-1.888,3.347-3.784,3.968a4.219,4.219,0,0,1-5.064-1.885c-.849,2.37-1.937,4.991-4.4,6.523-2.94,1.828-5.382.2-5.826-3.552-.882-7.451-.858-10.269-4.461-8.806.041,6.613.137,13.219.261,16.966a1.541,1.541,0,0,1-.842,1.517,33.946,33.946,0,0,0-5.7,4.193c-.494.457-1.036.326-1.024-.463.251-16.152,1.741-32.941,3.216-41.434C10,50.735,6.593,56.493,6.222,62.048c-.15,2.254.952,4.952,2.607,4.89,1.492-.056,2.3-1.461,2.536-1.555.327-.131.5.085.546.561.019,3.907-1.364,7.792-5.067,8.78-4.269,1.14-7.311-4.169-6.786-9.4C1.177,54.177,10.256,47.259,20.231,45.5c6.161-1.088,11.641.937,11.708,7.486C32,59.04,29.373,62.4,25.062,64.626c-.1.066-.051.152.056.144,3.707-.287,4.536,1.361,4.951,4.906.339,2.9.329,5.267,1.928,4.934.73-.151,1.485-1.571,2.013-2.753-.018-.094-.041-.185-.056-.283-.988-6.553,1.495-14.006,6.764-14.3,1.435-.08,1.741.377,2.451.238.659-.129,2.819-1.67,3.73-1.8a.537.537,0,0,1,.684.538c-.073,2.565-.388,8.756-.179,11.367.1,1.262.67,1.7,1.66,1.446.575-.146,1.2-.92,1.639-1.685a8.226,8.226,0,0,1-.277-1.573c-.578-7.277,2.32-11.7,5.842-11.993a3.884,3.884,0,0,1,2.928.672.142.142,0,0,0,.238-.094,76.087,76.087,0,0,0,.049-9.651c1.362-.635,5.061-1.771,5.028-.163-.1,4.782-.908,13.838-.465,19.454.094,1.192.815,1.685,1.535,1.533A3.086,3.086,0,0,0,67.2,64.1c-.588-5.492.984-20.06.6-22.7,1.109-.622,5.011-1.543,5.131.027.266,3.482-1.337,16.681-.59,21.923.163,1.146.817,1.66,1.521,1.562.6-.082,1.064-.749,1.35-1.393a7.637,7.637,0,0,1-.184-1.1c-.667-7.454,3.035-10.5,6.036-10.856,1.916-.225,4.8.847,5.128,3.661.521,4.453-3.4,6.927-6.015,7.554a2.5,2.5,0,0,0,2.654,2.367c1.942-.106,4.811-2.759,5.738-4.124a65.644,65.644,0,0,0,.321-6.9,4.072,4.072,0,0,0-.763-1.242c-.119-.167-.207-.4.014-.542a12.56,12.56,0,0,1,4.075-1.486.89.89,0,0,1,1.051.984c-.056.9-.069,1.125-.069,1.742.56-.9,2.061-3.324,4.224-3.266a2.142,2.142,0,0,1,2.092,2.164c.136,1.643-.768,3.282-2.394,3.277m-70.969-2.1c.038-4.991-3.814-6.561-5.877-5.907-.236.6-.307,8.631-.273,17.363C24.379,63,26.115,59.16,26.157,53.658M42.69,60.686c-.191-.956-.985-1.633-1.713-1.372-2.289.818-2.654,7.122-2.169,10.327.27,1.783,1.266,2.558,2.082,2.275A3.389,3.389,0,0,0,42.672,69.2a31.025,31.025,0,0,0,.018-8.514m16.334-3.641c-.2-.765-.806-1.423-1.552-1.23-2.022.526-2.515,6.447-2.1,9.449.208,1.521.937,2.347,1.775,2.152a3.164,3.164,0,0,0,1.782-2.585,24.352,24.352,0,0,0,.1-7.786m20.91,4.125c1.9-1.223,2.691-3.918,2.611-6-.058-1.5-.546-2.029-1.149-1.883-1.337.323-1.772,5.385-1.463,7.882" transform="translate(0 -25.838)" fill="#fff"/>
    <path id="Path_4032" data-name="Path 4032" d="M116.987,11.412v-1.13a1.477,1.477,0,0,1,.536-1.137,1.945,1.945,0,0,1,.94-.433l1.548-.172a6.949,6.949,0,0,0-.593,2.6Z" transform="translate(-74.52 -5.441)" fill="#fff"/>
    <path id="Path_4033" data-name="Path 4033" d="M120.25,5,121,2.625a8.235,8.235,0,0,0-3.91.541c-1.924.818-3.577,3.338-3.577,6.988S115.28,15.6,117.38,15.6a5.641,5.641,0,0,0,3.494-1.248l-.666-1.747a3.251,3.251,0,0,1-1.706.624c-.8,0-2.079-.522-2.079-3.7S117.5,4.788,119.5,4.788A1.493,1.493,0,0,1,120.25,5m-7.185-1.435a6.909,6.909,0,0,0-.6,2.7v6.26a4.213,4.213,0,0,1-4.446,4.143c-1.669,0-3.07-.756-3.07-2.932V4.465l2.43-.271v9.338a1.062,1.062,0,0,0,1.145,1.053,1.706,1.706,0,0,0,1.512-1.878V5.3a1.479,1.479,0,0,1,.535-1.137,1.951,1.951,0,0,1,.941-.432ZM99.1,6.514l.828-2.62a9.1,9.1,0,0,0-4.321.6c-2.125.9-3.952,3.688-3.952,7.722s1.954,6.021,4.274,6.021a6.232,6.232,0,0,0,3.861-1.379l-.735-1.93a3.6,3.6,0,0,1-1.885.689c-.882,0-2.3-.577-2.3-4.09s1.188-5.24,3.4-5.24a1.647,1.647,0,0,1,.827.23m1.743,1.593v9.168L103.269,17V7.836Z" transform="translate(-58.382 -1.643)" fill="#fff"/>
    <path id="Path_4034" data-name="Path 4034" d="M178.28,2.294a1.146,1.146,0,1,1,1.146-1.147,1.148,1.148,0,0,1-1.146,1.147m0-2.075a.928.928,0,1,0,.928.928.929.929,0,0,0-.928-.928m-.415.3A2.182,2.182,0,0,1,178.23.49a.634.634,0,0,1,.408.1.312.312,0,0,1,.114.254.333.333,0,0,1-.241.313v.005a.314.314,0,0,1,.184.243,3.1,3.1,0,0,0,.1.351h-.247a1.572,1.572,0,0,1-.088-.3c-.039-.164-.1-.216-.237-.22H178.1v.517h-.239Zm.239.554h.143c.163,0,.262-.082.262-.207s-.1-.2-.256-.2a.752.752,0,0,0-.149.011Z" transform="translate(-112.833 -0.001)" fill="#fff"/>
  </g>
</svg>
